<svg xmlns="http://www.w3.org/2000/svg" width="120" height="30" viewBox="0 0 120 30" fill="currentColor">
  <!-- 左边图标，保持原来的紫色 -->
  <path d="M15.2058 0H0V23.0947V29.5082L9.15356 23.0947V8.96286L19.5417 16.0288L9.15356 23.0947H26.7682V8.32051L15.2058 0Z" fill="#7979F2"></path>

  <!-- 下面这些是文字部分，加 fill="white" -->
  <path d="M45.6072 4.17531V16.2998L36.2429 4.17531H33.7136V22.8739H37.3369V10.8197L46.641 22.8739H49.2506V4.17531H45.6072Z" fill="white"></path>
  <path d="M60.3011 10.0268V11.3014C59.9398 10.92 59.5383 10.5687 59.0465 10.3178C58.3239 9.94647 57.4908 9.75577 56.5774 9.75577C55.4031 9.75577 54.3493 10.0468 53.4159 10.639C52.4724 11.2211 51.7397 12.0241 51.2078 13.0378C50.6758 14.0515 50.4048 15.1957 50.4048 16.4704C50.4048 17.7451 50.6758 18.8692 51.2078 19.8729C51.7397 20.8866 52.4724 21.6795 53.4159 22.2717C54.3593 22.8538 55.4132 23.1449 56.5774 23.1449C57.5008 23.1449 58.3239 22.9542 59.0465 22.5728C59.5383 22.3118 59.9398 21.9706 60.3011 21.5892V22.8839H63.7638V10.0368H60.3011V10.0268ZM59.5785 18.9495C58.9762 19.6019 58.1833 19.923 57.2098 19.923C56.5674 19.923 56.0053 19.7725 55.5236 19.4814C55.0318 19.1904 54.6504 18.7789 54.3794 18.2569C54.1084 17.735 53.9679 17.1228 53.9679 16.4302C53.9679 15.7377 54.1084 15.1556 54.3794 14.6337C54.6504 14.1117 55.0318 13.7002 55.5236 13.4092C56.0154 13.1181 56.5774 12.9675 57.2098 12.9675C57.8421 12.9675 58.4343 13.1181 58.9261 13.4092C59.4179 13.7002 59.7993 14.1117 60.0703 14.6337C60.3412 15.1556 60.4818 15.7578 60.4818 16.4302C60.4818 17.454 60.1807 18.2971 59.5785 18.9495Z" fill="white"></path>
  <path d="M69.9665 22.8739L64.2957 10.0268H68.1298L72.1947 20.6156H70.3078L74.4128 10.0268H78.1064L72.4657 22.8739H69.9665Z" fill="white"></path>
  <path d="M98.0395 10.0268V11.3014C97.6782 10.92 97.2767 10.5687 96.7849 10.3178C96.0622 9.94647 95.2292 9.75577 94.3158 9.75577C93.1415 9.75577 92.0877 10.0468 91.1542 10.639C90.2108 11.2211 89.4781 12.0241 88.9461 13.0378C88.4142 14.0515 88.1432 15.1957 88.1432 16.4704C88.1432 17.7451 88.4142 18.8692 88.9461 19.8729C89.4781 20.8866 90.2108 21.6795 91.1542 22.2717C92.0977 22.8538 93.1516 23.1449 94.3158 23.1449C95.2392 23.1449 96.0622 22.9542 96.7849 22.5728C97.2767 22.3118 97.6782 21.9706 98.0395 21.5892V22.8839H101.502V10.0368H98.0395V10.0268ZM97.3168 18.9495C96.7146 19.6019 95.9217 19.923 94.9481 19.923C94.3058 19.923 93.7437 19.7725 93.262 19.4814C92.7702 19.1904 92.3888 18.7789 92.1178 18.2569C91.8468 17.735 91.7063 17.1228 91.7063 16.4302C91.7063 15.7377 91.8468 15.1556 92.1178 14.6337C92.3888 14.1117 92.7702 13.7002 93.262 13.4092C93.7538 13.1181 94.3158 12.9675 94.9481 12.9675C95.5805 12.9675 96.1726 13.1181 96.6644 13.4092C97.1562 13.7002 97.5376 14.1117 97.8086 14.6337C98.0796 15.1556 98.2201 15.7578 98.2201 16.4302C98.2201 17.454 97.919 18.2971 97.3168 18.9495Z" fill="white"></path>
  <path d="M106.641 3.63332H103.158V22.8739H106.641V3.63332Z" fill="white"></path>
  <path d="M120 22.8739L114.691 16.1392L119.729 10.0268H115.714L111.82 14.9147V3.63332H108.337V22.8739H111.82V17.6648L115.744 22.8739H120Z" fill="white"></path>
  <path d="M92.4389 4.17531H76.8719V7.38708H82.8337V22.8739H86.4771V7.38708H92.4389V4.17531Z" fill="white"></path>
</svg>
